<svg id="Livello_1" data-name="Livello 1" xmlns="http://www.w3.org/2000/svg" width="409.66" height="361.57" viewBox="0 0 409.66 361.57"><defs><style>.cls-1{fill:#009c80;}</style></defs><path class="cls-1" d="M379.48,225.06C479.59,104.81,341.09-55.48,208.2,25.55,62.5-61.66-73,133.14,55.41,243.65l94.11,94.11c43.61,43.4,93.07,32.21,130.42-12.52,31.5-31.58,63.17-63,94.57-94.65A25,25,0,0,0,379.48,225.06ZM67.21,146.46a99,99,0,0,1,.09-19.78,163.61,163.61,0,0,1,4.43-16,93,93,0,0,1,10.12-17.4A127.7,127.7,0,0,1,93.07,82.22c26.74-23.09,68.72-19.65,93.22,5.4,12.25,11.74,32.21,12.22,44.44,0,67.66-65.42,163.45,30,99.93,98-8.06,8-16.05,16.1-24.12,24.11C290.11,197.06,273.7,184.32,257,172c-27.07-19.86-67.05-20.13-94.36-.53-17.39,12.69-34.33,26-51.62,38.84-9.93-10.23-20.82-20-30.13-30.79C72,167.59,70.3,161.39,67.21,146.46Zm134.44,74.69c-1.3.61-4.27,1.23,0,0Zm20.92,72.58c-4.81,4.65-7.26,8.55-13.53,8.94,3.09-.45-1.7-.55-2.07-.29-19.09-8.83-36.1-32.19-52-47,15.66-11.3,30.35-24.11,46.78-34.26,1.51-.44,3.07-.82,4.6-1.18-1.84.59,3.75,0,5.81-.1a33.94,33.94,0,0,1,5.88,1.74c15.51,9.86,29.15,21.9,43.92,32.76Z" transform="translate(-4.04 -3.57)"/></svg>